<?xml version="1.0" standalone="no"?>
<!DOCTYPE svg PUBLIC "-//W3C//DTD SVG 20010904//EN"
 "http://www.w3.org/TR/2001/REC-SVG-20010904/DTD/svg10.dtd">
<svg version="1.0" xmlns="http://www.w3.org/2000/svg"
 width="764.000000pt" height="764.000000pt" viewBox="0 0 764.000000 764.000000"
 preserveAspectRatio="xMidYMid meet">
<metadata>
Created by potrace 1.14, written by Peter Selinger 2001-2017
</metadata>
<g transform="translate(0.000000,764.000000) scale(0.100000,-0.100000)"
fill="#000000" stroke="none">
<path d="M13 6446 c-3 -4 -6 -1191 -7 -2636 l-1 -2628 917 -1 917 0 0 59 c0
33 2 63 5 68 3 5 2 23 -3 39 -5 17 -5 36 -1 42 4 7 4 30 0 52 -4 21 -4 57 0
80 4 22 4 56 0 75 -4 19 -4 36 0 39 4 2 4 23 0 45 -4 22 -4 59 0 82 5 23 6 47
3 55 -3 7 -6 30 -6 50 l-2 38 -445 2 c-245 1 -458 2 -475 2 l-30 1 5 1907 5
1908 472 0 471 0 5 28 c2 15 1 30 -3 32 -4 3 -6 17 -4 32 3 23 4 92 3 213 0 8
0 33 0 55 0 22 0 47 0 55 0 8 0 56 1 107 1 51 -1 97 -5 103 -3 5 -1 10 5 10 6
0 9 4 5 10 -3 5 -6 25 -7 45 -1 19 -4 35 -7 36 -47 6 -1814 2 -1818 -5z"/>
<path d="M5823 6452 c-13 -2 -23 -6 -23 -10 -3 -63 0 -704 3 -709 3 -4 217 -8
476 -8 l471 1 0 -1911 0 -1910 -475 2 -475 1 0 -71 c-1 -40 0 -191 0 -337 1
-146 1 -277 1 -292 l-1 -26 915 -1 915 -2 0 48 c1 53 1 5110 0 5183 l0 45
-893 0 c-490 0 -902 -1 -914 -3z"/>
<path d="M3964 5521 c-3 -3 -17 -6 -32 -7 -36 -4 -97 -12 -97 -14 0 -1 -9 -3
-20 -5 -71 -11 -102 -18 -114 -28 -8 -7 -15 -10 -15 -8 -2 9 -113 -33 -191
-71 -90 -43 -138 -71 -174 -99 -29 -23 -45 -25 -37 -4 3 8 1 15 -5 15 -6 0 -7
5 -3 11 9 15 8 138 -1 147 -4 4 -213 7 -466 8 l-459 1 -1 -26 c0 -14 -1 -698
-1 -1519 -1 -1037 2 -1496 10 -1500 5 -4 215 -6 465 -4 l454 2 2 33 c5 100 5
167 -1 167 -3 0 -4 8 -2 18 7 30 9 142 2 142 -3 0 -4 8 -2 18 7 30 9 142 2
142 -3 0 -4 8 -2 18 6 26 10 142 4 142 -3 0 -5 25 -5 55 0 30 2 55 5 55 5 0 4
75 -2 188 -2 28 -1 52 2 52 5 0 4 72 -2 188 -2 28 -1 52 2 52 5 0 4 75 -2 188
-2 28 -1 52 2 52 5 0 4 72 -2 188 -2 28 -1 52 2 52 7 0 3 157 -4 176 -3 9 -3
21 1 27 4 6 6 34 6 61 -2 59 10 77 97 145 162 128 432 180 630 120 167 -50
317 -209 352 -374 1 -5 5 -28 9 -50 5 -22 8 -448 9 -948 l0 -907 467 2 467 3
0 960 c-1 930 -4 1095 -24 1180 -5 22 -9 41 -9 43 -3 22 -18 74 -43 145 -98
285 -319 530 -591 656 -77 36 -129 56 -173 66 -10 2 -39 9 -64 15 -92 23 -175
31 -323 33 -65 1 -121 0 -123 -2z"/>
</g>
</svg>
